# xmcd
#
# Track frame offsets:
#	182
#	11027
#	20352
#	31032
#	43740
#	56322
#	67145
#	79300
#	90300
#	103527
#	116580
#	129957
#	140122
#	152352
#	166907
#	178070
#	191047
#	203925
#	216272
#	227685
#	236942
#	246190
#	259840
#	272210
#	283142
#	295292
#
# Disc length: 4078
#
# Revision: 5
# Processed by: cddbd v1.5.1PL0 Copyright (c) Steve Scherf et al.
# Submitted via: OrangeCD 5.2
# Normalized: r4:DSETVAR1
#
DISCID=7e0fec1a
DTITLE=Various Artist - Jump Blue Rockin' The Jooks
DYEAR=1999
DGENRE=Blues
TTITLE0=Dave Bartholomew - Jump Children
TTITLE1=Big T Tyler - King Kong
TTITLE2=Five Keys - Hucklebuck With Jimmy
TTITLE3=Illinois Jaquet - Flying Home Part 1
TTITLE4=Big Jay McNeely - Deacon Rides Again
TTITLE5=Calvin Boze and His Allstars - Safronia B
TTITLE6=Louis Jordan - Messy Bessy
TTITLE7=Jimmy and Joe Liggins - I Ain't Drunk
TTITLE8=Nellie Lutcher - Fine Brown Frame
TTITLE9=Pigmeat Markham - See See Rider
TTITLE10=Helen Humes - He May Be Your Man
TTITLE11=Clovers - Yes It's You
TTITLE12=Pee Wee Crayton - Daybreak
TTITLE13=Jo Jo Adams - When I'm In My Tea
TTITLE14=Peppermint Harris - I Got Loaded
TTITLE15=Ike and Tina Turner - A Fool In Love
TTITLE16=Amos Milburn - Sax Shack Boogie
TTITLE17=Cleo Brown - Cleo's Boogie
TTITLE18=Archibald - Great Big Eyes
TTITLE19=Roy Brown - Let the Four Winds Blow
TTITLE20=T-Bone Walker - Teenage Baby
TTITLE21=Lowell Fulson - Don't Leave Me Baby
TTITLE22=Floyd Dixon - Wine Wine Wine
TTITLE23=Shirley and Lee - Let the Good Times Roll
TTITLE24=Jack "the Bear" Parker - I Need You, I Want You
TTITLE25=Big Joe Turner - Jumpin' Tonight (Midnight Rockin')
EXTD=
EXTT0=Dave Bartholonew
EXTT1=Big T Tyler
EXTT2=Five Keys
EXTT3=Illinois Jacquet
EXTT4=Big Jay McNeely
EXTT5=Calvin Boze and His Allstars
EXTT6=Louis Jordan
EXTT7=Jimmy and Joe Liggins
EXTT8=Nellie Lutcher
EXTT9=Pigmeat Markham
EXTT10=Helen Humes
EXTT11=The Clovers
EXTT12=Pee Wee Crayton
EXTT13=Jo Jo Adams
EXTT14=Peppermint Harris
EXTT15=Ike and Tina Turner
EXTT16=Amos Milburn
EXTT17=Cleo Brown
EXTT18=Archibald
EXTT19=Roy Brown
EXTT20=T Bone Walker
EXTT21=Lowell Fulson
EXTT22=Floyd Dixon
EXTT23=Shirley and Lee
EXTT24=Jack 'The Bear' Parker
EXTT25=Big Joe Turner
PLAYORDER=
